<svg width="24" height="25" viewBox="0 0 24 25" fill="none" xmlns="http://www.w3.org/2000/svg">
<path d="M13.998 11.962C14.6913 11.962 15.2817 11.719 15.769 11.233C16.2563 10.7477 16.5 10.1577 16.5 9.463C16.5 8.76967 16.2573 8.17967 15.772 7.693C15.286 7.20567 14.696 6.962 14.002 6.962C13.3087 6.962 12.7183 7.20467 12.231 7.69C11.7437 8.176 11.5 8.766 11.5 9.46C11.5 10.1533 11.743 10.7433 12.229 11.23C12.7143 11.718 13.304 11.962 13.998 11.962ZM8.577 16.442C9.28833 15.674 10.1117 15.0813 11.047 14.664C11.981 14.2467 12.9653 14.038 14 14.038C15.0347 14.038 16.0193 14.2467 16.954 14.664C17.8887 15.0813 18.712 15.674 19.424 16.442C19.5907 16.442 19.7283 16.3813 19.837 16.26C19.9457 16.138 20 15.9937 20 15.827V5.115C20 4.93567 19.9423 4.78833 19.827 4.673C19.7117 4.55767 19.5643 4.5 19.385 4.5H8.615C8.43567 4.5 8.28833 4.55767 8.173 4.673C8.05767 4.78833 8 4.93567 8 5.115V15.827C8 15.9937 8.05433 16.138 8.163 16.26C8.27233 16.3813 8.41033 16.442 8.577 16.442ZM8.615 17.5C8.171 17.5 7.791 17.3417 7.475 17.025C7.15833 16.709 7 16.329 7 15.885V5.115C7 4.671 7.15833 4.291 7.475 3.975C7.791 3.65833 8.171 3.5 8.615 3.5H19.385C19.829 3.5 20.209 3.65833 20.525 3.975C20.8417 4.291 21 4.671 21 5.115V15.885C21 16.329 20.8417 16.709 20.525 17.025C20.209 17.3417 19.829 17.5 19.385 17.5H8.615ZM4.615 21.5C4.171 21.5 3.791 21.3417 3.475 21.025C3.15833 20.709 3 20.329 3 19.885V7.5H4V19.885C4 20.0643 4.05767 20.2117 4.173 20.327C4.28833 20.4423 4.43567 20.5 4.615 20.5H17V21.5H4.615ZM14 10.962C13.5887 10.962 13.2357 10.8147 12.941 10.52C12.647 10.226 12.5 9.87333 12.5 9.462C12.5 9.05 12.647 8.69667 12.941 8.402C13.2357 8.10867 13.5887 7.962 14 7.962C14.4113 7.962 14.7643 8.10867 15.059 8.402C15.353 8.69667 15.5 9.05 15.5 9.462C15.5 9.87333 15.353 10.226 15.059 10.52C14.7643 10.8147 14.4113 10.962 14 10.962ZM9.97 16.5H18.03C17.47 16.0133 16.846 15.648 16.158 15.404C15.4693 15.16 14.75 15.038 14 15.038C13.25 15.038 12.5307 15.16 11.842 15.404C11.154 15.6473 10.53 16.0127 9.97 16.5Z" fill="black"/>
</svg>
