<svg width="24" height="25" viewBox="0 0 24 25" fill="none" xmlns="http://www.w3.org/2000/svg">
<path d="M3.5625 3.67654C3.47962 3.67654 3.40013 3.70753 3.34153 3.76269C3.28292 3.81785 3.25 3.89267 3.25 3.97067V16.3243C3.25 16.4867 3.39 16.6185 3.5625 16.6185H8.875V17.795H3.5625C2.7 17.795 2 17.1362 2 16.3243V3.97067C2 3.15886 2.7 2.5 3.5625 2.5H10.4375C11.3 2.5 12 3.15886 12 3.97067V6.91202C12 7.07439 12.14 7.20616 12.3125 7.20616H14.1875C15.05 7.20616 15.75 7.86502 15.75 8.67683V9.55924C15.3112 9.6063 14.8813 9.74866 14.5 9.98868V8.67683C14.5 8.59882 14.4671 8.52401 14.4085 8.46885C14.3499 8.41369 14.2704 8.3827 14.1875 8.3827H12.3125C11.45 8.3827 10.75 7.72384 10.75 6.91202V3.97067C10.75 3.89267 10.7171 3.81785 10.6585 3.76269C10.5999 3.70753 10.5204 3.67654 10.4375 3.67654H3.5625ZM17.0763 11.0699C16.7935 10.843 16.4341 10.7184 16.0625 10.7184C15.6909 10.7184 15.3315 10.843 15.0487 11.0699L10.7113 14.5525C10.5276 14.6996 10.3801 14.8824 10.2789 15.0884C10.1777 15.2944 10.1252 15.5185 10.125 15.7455V21.1764C10.125 21.9082 10.755 22.5 11.5312 22.5H13.7188C14.495 22.5 15.125 21.9082 15.125 21.1764V19.1186C15.125 19.0374 15.195 18.9716 15.2812 18.9716H16.8438C16.93 18.9716 17 19.0374 17 19.1186V21.1776C17 21.907 17.63 22.5 18.4062 22.5H20.5938C21.37 22.5 22 21.9082 22 21.1764V15.7455C22 15.2866 21.7862 14.8501 21.415 14.5525L17.0763 11.0699ZM15.86 11.9653C15.9165 11.92 15.9883 11.8952 16.0625 11.8952C16.1367 11.8952 16.2085 11.92 16.265 11.9653L20.6025 15.4478C20.6484 15.4845 20.6854 15.5301 20.7109 15.5815C20.7363 15.6328 20.7497 15.6888 20.75 15.7455V21.1764C20.75 21.2588 20.68 21.3235 20.5938 21.3235H18.4062C18.3648 21.3235 18.3251 21.308 18.2958 21.2804C18.2665 21.2528 18.25 21.2154 18.25 21.1764V19.1186C18.25 18.388 17.62 17.795 16.8438 17.795H15.2812C14.505 17.795 13.875 18.388 13.875 19.1186V21.1776C13.8747 21.2164 13.8581 21.2535 13.8288 21.2808C13.7995 21.3081 13.76 21.3235 13.7188 21.3235H11.5312C11.4898 21.3235 11.4501 21.308 11.4208 21.2804C11.3915 21.2528 11.375 21.2154 11.375 21.1764V15.7455C11.375 15.6314 11.4287 15.5219 11.5212 15.4478L15.86 11.9653ZM6.375 5.73548C6.375 5.96951 6.27623 6.19396 6.10041 6.35944C5.9246 6.52492 5.68614 6.61789 5.4375 6.61789C5.18886 6.61789 4.9504 6.52492 4.77459 6.35944C4.59877 6.19396 4.5 5.96951 4.5 5.73548C4.5 5.50146 4.59877 5.27701 4.77459 5.11153C4.9504 4.94605 5.18886 4.85308 5.4375 4.85308C5.68614 4.85308 5.9246 4.94605 6.10041 5.11153C6.27623 5.27701 6.375 5.50146 6.375 5.73548ZM5.4375 9.2651C5.68614 9.2651 5.9246 9.17214 6.10041 9.00665C6.27623 8.84117 6.375 8.61673 6.375 8.3827C6.375 8.14867 6.27623 7.92423 6.10041 7.75874C5.9246 7.59326 5.68614 7.50029 5.4375 7.50029C5.18886 7.50029 4.9504 7.59326 4.77459 7.75874C4.59877 7.92423 4.5 8.14867 4.5 8.3827C4.5 8.61673 4.59877 8.84117 4.77459 9.00665C4.9504 9.17214 5.18886 9.2651 5.4375 9.2651ZM6.375 11.0299C6.375 11.2639 6.27623 11.4884 6.10041 11.6539C5.9246 11.8194 5.68614 11.9123 5.4375 11.9123C5.18886 11.9123 4.9504 11.8194 4.77459 11.6539C4.59877 11.4884 4.5 11.2639 4.5 11.0299C4.5 10.7959 4.59877 10.5714 4.77459 10.406C4.9504 10.2405 5.18886 10.1475 5.4375 10.1475C5.68614 10.1475 5.9246 10.2405 6.10041 10.406C6.27623 10.5714 6.375 10.7959 6.375 11.0299ZM8.5625 6.61789C8.81114 6.61789 9.0496 6.52492 9.22541 6.35944C9.40123 6.19396 9.5 5.96951 9.5 5.73548C9.5 5.50146 9.40123 5.27701 9.22541 5.11153C9.0496 4.94605 8.81114 4.85308 8.5625 4.85308C8.31386 4.85308 8.0754 4.94605 7.89959 5.11153C7.72377 5.27701 7.625 5.50146 7.625 5.73548C7.625 5.96951 7.72377 6.19396 7.89959 6.35944C8.0754 6.52492 8.31386 6.61789 8.5625 6.61789ZM9.5 8.3827C9.5 8.61673 9.40123 8.84117 9.22541 9.00665C9.0496 9.17214 8.81114 9.2651 8.5625 9.2651C8.31386 9.2651 8.0754 9.17214 7.89959 9.00665C7.72377 8.84117 7.625 8.61673 7.625 8.3827C7.625 8.14867 7.72377 7.92423 7.89959 7.75874C8.0754 7.59326 8.31386 7.50029 8.5625 7.50029C8.81114 7.50029 9.0496 7.59326 9.22541 7.75874C9.40123 7.92423 9.5 8.14867 9.5 8.3827ZM8.5625 11.9123C8.81114 11.9123 9.0496 11.8194 9.22541 11.6539C9.40123 11.4884 9.5 11.2639 9.5 11.0299C9.5 10.7959 9.40123 10.5714 9.22541 10.406C9.0496 10.2405 8.81114 10.1475 8.5625 10.1475C8.31386 10.1475 8.0754 10.2405 7.89959 10.406C7.72377 10.5714 7.625 10.7959 7.625 11.0299C7.625 11.2639 7.72377 11.4884 7.89959 11.6539C8.0754 11.8194 8.31386 11.9123 8.5625 11.9123Z" fill="black"/>
</svg>
