<svg width="24" height="25" viewBox="0 0 24 25" fill="none" xmlns="http://www.w3.org/2000/svg">
<path d="M7.19625 17.5625H8.32125V10.8125H7.19625V17.5625ZM11.4375 17.5625H12.5625V7.4375H11.4375V17.5625ZM15.6788 17.5625H16.8038V14.1875H15.6788V17.5625ZM4.81575 21.5C4.29825 21.5 3.86625 21.3267 3.51975 20.9802C3.17325 20.633 3 20.2006 3 19.6831V5.31687C3 4.79937 3.17362 4.36737 3.52087 4.02087C3.86737 3.67362 4.29937 3.5 4.81687 3.5H19.1831C19.7006 3.5 20.1326 3.67362 20.4791 4.02087C20.8264 4.36737 21 4.79937 21 5.31687V19.6831C21 20.2006 20.8267 20.6326 20.4802 20.9791C20.133 21.3264 19.7006 21.5 19.1831 21.5H4.81575ZM4.81575 20.375H19.182C19.3545 20.375 19.5131 20.303 19.6579 20.159C19.8019 20.0142 19.8739 19.8556 19.8739 19.6831V5.31687C19.8739 5.14437 19.8019 4.98575 19.6579 4.841C19.5139 4.697 19.3556 4.625 19.1831 4.625H4.81687C4.64437 4.625 4.48575 4.697 4.341 4.841C4.197 4.98575 4.125 5.14437 4.125 5.31687V19.6831C4.125 19.8556 4.197 20.0142 4.341 20.159C4.48575 20.303 4.64325 20.375 4.81575 20.375Z" fill="black"/>
</svg>
