<svg width="31" height="30" viewBox="0 0 31 30" fill="none" xmlns="http://www.w3.org/2000/svg">
<g clip-path="url(#clip0_604_829)">
<mask id="mask0_604_829" style="mask-type:luminance" maskUnits="userSpaceOnUse" x="0" y="0" width="31" height="30">
<path d="M15.0102 30C23.3002 30 30.0205 23.2843 30.0205 15C30.0205 6.71573 23.3002 0 15.0102 0C6.72031 0 0 6.71573 0 15C0 23.2843 6.72031 30 15.0102 30Z" fill="white"/>
</mask>
<g mask="url(#mask0_604_829)">
<path d="M15.0102 0H30.0205V3.75L28.1442 5.625L30.0205 7.5V11.25L28.1442 13.125L30.0205 15V18.75L28.1442 20.625L30.0205 22.5V26.25L15.0102 28.125L0 26.25V22.5L1.87628 20.625L0 18.75V15L15.0102 0Z" fill="#EEEEEE"/>
<path d="M13.134 3.75H30.0205V7.5H13.134V3.75ZM13.134 11.25H30.0205V15H15.0102L13.134 11.25ZM0 18.75H30.0205V22.5H0V18.75ZM0 26.25H30.0205V30H0V26.25Z" fill="#D80027"/>
<path d="M0 0H15.0102V15H0V0Z" fill="#0052B4"/>
<path d="M10.9645 14.2383L14.3066 11.8359H10.2023L13.5444 14.2383L12.2545 10.3125L10.9645 14.2383ZM6.21518 14.2383L9.5573 11.8359H5.45294L8.79507 14.2383L7.50512 10.3125L6.21518 14.2383ZM1.46585 14.2383L4.80797 11.8359H0.703613L4.04574 14.2383L2.75579 10.3125L1.46585 14.2383ZM10.9645 9.49219L14.3066 7.08984H10.2023L13.5444 9.49219L12.2545 5.56641L10.9645 9.49219ZM6.21518 9.49219L9.5573 7.08984H5.45294L8.79507 9.49219L7.50512 5.56641L6.21518 9.49219ZM1.46585 9.49219L4.80797 7.08984H0.703613L4.04574 9.49219L2.75579 5.56641L1.46585 9.49219ZM10.9645 4.6875L14.3066 2.28516H10.2023L13.5444 4.6875L12.2545 0.761719L10.9645 4.6875ZM6.21518 4.6875L9.5573 2.28516H5.45294L8.79507 4.6875L7.50512 0.761719L6.21518 4.6875ZM1.46585 4.6875L4.80797 2.28516H0.703613L4.04574 4.6875L2.75579 0.761719L1.46585 4.6875Z" fill="#EEEEEE"/>
</g>
</g>
<defs>
<clipPath id="clip0_604_829">
<rect width="30.0205" height="30" fill="white"/>
</clipPath>
</defs>
</svg>
