<svg width="25" height="25" viewBox="0 0 25 25" fill="none" xmlns="http://www.w3.org/2000/svg">
<path d="M19.4175 1.7L17.8862 0H5.8275C4.9575 0 4.62125 0.645 4.62125 1.14875V5.68625H6.3125V2.06625C6.3125 1.87375 6.475 1.71125 6.6625 1.71125H15.2913C15.4812 1.71125 15.5763 1.745 15.5763 1.90125V7.92625H21.7175C21.9587 7.92625 22.0525 8.05125 22.0525 8.23375V22.9463C22.0525 23.2537 21.9275 23.3 21.74 23.3H6.6625C6.56952 23.2977 6.48106 23.2595 6.41576 23.1932C6.35047 23.127 6.31345 23.038 6.3125 22.945V21.6H4.6325V23.7188C4.61 24.4688 5.01 25 5.8275 25H22.575C23.45 25 23.7488 24.3663 23.7488 23.7887V6.48375L23.3113 6.00875L19.4175 1.7ZM17.295 1.9L17.7787 2.4425L21.0238 6.00875L21.2025 6.225H17.8862C17.6362 6.225 17.4775 6.18375 17.4112 6.1C17.345 6.01875 17.3062 5.8875 17.295 5.70875V1.9ZM15.9325 13.3337H21.6537V15.0013H15.9312L15.9325 13.3337ZM15.9325 10.0013H21.6537V11.6675H15.9312L15.9325 10.0013ZM15.9325 16.6675H21.6537V18.335H15.9312L15.9325 16.6675ZM1.25 7.0325V20.3662H14.3313V7.0325H1.25ZM7.79125 14.7875L6.99125 16.01H7.79125V17.5H3.77L6.6875 13.1125L4.1025 9.1675H6.2625L7.7925 11.4625L9.32125 9.1675H11.48L8.89 13.1125L11.8113 17.5H9.57L7.79125 14.7875Z" fill="#666666"/>
</svg>
