<svg width="24" height="25" viewBox="0 0 24 25" fill="none" xmlns="http://www.w3.org/2000/svg">
<path fill-rule="evenodd" clip-rule="evenodd" d="M14.386 12.8335C14.2481 12.4435 13.9927 12.1059 13.6549 11.8671C13.3171 11.6282 12.9137 11.5 12.5 11.5V11H11.5V11.5C10.9696 11.5 10.4609 11.7107 10.0858 12.0858C9.71071 12.4609 9.5 12.9696 9.5 13.5C9.5 14.0304 9.71071 14.5391 10.0858 14.9142C10.4609 15.2893 10.9696 15.5 11.5 15.5V17.5C11.065 17.5 10.6945 17.2225 10.5565 16.8335C10.536 16.7699 10.503 16.711 10.4594 16.6603C10.4157 16.6097 10.3624 16.5683 10.3025 16.5386C10.2426 16.5089 10.1773 16.4916 10.1106 16.4875C10.0439 16.4835 9.97699 16.4929 9.91396 16.5152C9.85092 16.5375 9.79299 16.5721 9.7436 16.6172C9.6942 16.6622 9.65434 16.7167 9.62637 16.7775C9.59841 16.8382 9.5829 16.9039 9.58078 16.9707C9.57865 17.0376 9.58995 17.1041 9.614 17.1665C9.75192 17.5565 10.0073 17.8941 10.3451 18.1329C10.6829 18.3718 11.0863 18.5 11.5 18.5V19H12.5V18.5C13.0304 18.5 13.5391 18.2893 13.9142 17.9142C14.2893 17.5391 14.5 17.0304 14.5 16.5C14.5 15.9696 14.2893 15.4609 13.9142 15.0858C13.5391 14.7107 13.0304 14.5 12.5 14.5V12.5C12.7068 12.4999 12.9085 12.564 13.0774 12.6834C13.2463 12.8027 13.374 12.9715 13.443 13.1665C13.4872 13.2915 13.5792 13.3939 13.6988 13.4511C13.7581 13.4795 13.8223 13.4958 13.8879 13.4993C13.9535 13.5028 14.0191 13.4934 14.081 13.4715C14.1429 13.4496 14.1999 13.4158 14.2488 13.3719C14.2976 13.328 14.3373 13.2749 14.3656 13.2157C14.394 13.1564 14.4103 13.0922 14.4138 13.0266C14.4173 12.961 14.4079 12.8954 14.386 12.8335ZM11.5 12.5C11.2348 12.5 10.9804 12.6054 10.7929 12.7929C10.6054 12.9804 10.5 13.2348 10.5 13.5C10.5 13.7652 10.6054 14.0196 10.7929 14.2071C10.9804 14.3946 11.2348 14.5 11.5 14.5V12.5ZM12.5 17.5C12.7652 17.5 13.0196 17.3946 13.2071 17.2071C13.3946 17.0196 13.5 16.7652 13.5 16.5C13.5 16.2348 13.3946 15.9804 13.2071 15.7929C13.0196 15.6054 12.7652 15.5 12.5 15.5V17.5Z" fill="black"/>
<path fill-rule="evenodd" clip-rule="evenodd" d="M6.57649 4.8105C7.80349 4.21 9.81649 3.5 12.0195 3.5C14.1765 3.5 16.1365 4.1805 17.357 4.773L17.426 4.8065C17.794 4.9885 18.091 5.1605 18.3 5.3L16.453 8C20.711 12.353 24 21.4985 12.0195 21.4985C0.03899 21.4985 3.23949 12.519 7.53449 8L5.69949 5.3C5.84099 5.2075 6.02049 5.1 6.23449 4.986C6.34049 4.929 6.45449 4.87 6.57649 4.8105ZM15.266 7.9645L16.7445 5.803C15.3695 5.902 13.7335 6.225 12.1585 6.681C11.0335 7.006 9.78349 6.9565 8.62599 6.743C8.33431 6.68892 8.04462 6.62455 7.75749 6.55L8.71749 7.9635C10.775 8.696 13.208 8.696 15.266 7.9645ZM8.13999 8.815C10.5475 9.745 13.441 9.745 15.8485 8.814C16.8534 9.87335 17.6941 11.0772 18.3425 12.3855C19.0185 13.7645 19.3865 15.143 19.3265 16.331C19.2685 17.4775 18.8175 18.457 17.7875 19.185C16.714 19.9435 14.9085 20.4985 12.019 20.4985C9.12649 20.4985 7.31249 19.953 6.22899 19.203C5.19149 18.4845 4.73599 17.518 4.67149 16.387C4.60399 15.212 4.96399 13.8405 5.63749 12.452C6.27999 11.128 7.17649 9.8535 8.13999 8.815ZM7.56499 5.458C7.96499 5.577 8.38299 5.6805 8.80699 5.759C9.88199 5.957 10.96 5.986 11.88 5.7195C12.9521 5.40717 14.0425 5.16154 15.145 4.984C14.225 4.707 13.149 4.5 12.019 4.5C10.2965 4.5 8.68999 4.9805 7.56499 5.458Z" fill="black"/>
</svg>
