<svg width="24" height="25" viewBox="0 0 24 25" fill="none" xmlns="http://www.w3.org/2000/svg">
<path d="M21.376 7.09764L12.576 2.63637C12.3994 2.5469 12.2013 2.5 12 2.5C11.7987 2.5 11.6006 2.5469 11.424 2.63637L2.624 7.09764C2.43522 7.19328 2.27769 7.33417 2.16791 7.50555C2.05812 7.67693 2.00013 7.87249 2 8.07174V16.9276C2.00013 17.1269 2.05812 17.3224 2.16791 17.4938C2.27769 17.6652 2.43522 17.8061 2.624 17.9017L11.424 22.363C11.6005 22.4529 11.7986 22.5 12 22.5C12.2014 22.5 12.3995 22.4529 12.576 22.363L21.376 17.9017C21.5648 17.8061 21.7223 17.6652 21.8321 17.4938C21.9419 17.3224 21.9999 17.1269 22 16.9276V8.07174C21.9999 7.87249 21.9419 7.67693 21.8321 7.50555C21.7223 7.33417 21.5648 7.19328 21.376 7.09764ZM11.808 3.2864C11.8667 3.25607 11.9328 3.24015 12 3.24015C12.0672 3.24015 12.1333 3.25607 12.192 3.2864L20.867 7.68469L17.05 9.61902C17.0319 9.60512 17.0125 9.59272 16.992 9.58198L8.192 5.12072L11.808 3.2864ZM12 12.1756L3.133 7.68469L7.356 5.54295L16.223 10.0376L12 12.1756ZM3.008 17.2498C2.94517 17.218 2.89273 17.1711 2.85614 17.1141C2.81955 17.0571 2.80016 16.9921 2.8 16.9258V8.35972L11.6 12.8191V21.6074L3.008 17.2498ZM20.992 17.2498L12.4 21.6018V12.8191L16.4 10.7922V14.722C16.4 14.8202 16.4421 14.9144 16.5172 14.9839C16.5922 15.0533 16.6939 15.0924 16.8 15.0924C16.9061 15.0924 17.0078 15.0533 17.0828 14.9839C17.1579 14.9144 17.2 14.8202 17.2 14.722V10.3866L21.2 8.35972V16.9276C21.1998 16.9939 21.1805 17.059 21.1439 17.116C21.1073 17.173 21.0548 17.2199 20.992 17.2517V17.2498Z" fill="black"/>
</svg>
