<svg width="24" height="25" viewBox="0 0 24 25" fill="none" xmlns="http://www.w3.org/2000/svg">
<path d="M19.9167 11.25C20.2083 11.25 20.4792 11.2988 20.7292 11.3965C20.9792 11.4941 21.2014 11.6276 21.3958 11.7969C21.5903 11.9661 21.7361 12.1712 21.8333 12.4121C21.9306 12.653 21.9861 12.9102 22 13.1836C22 13.4375 21.9479 13.6849 21.8438 13.9258C21.7396 14.1667 21.5903 14.2177 21.3958 14.4L13.832 21L10 22.4805L11.3438 19.1707L18.4479 12C18.6493 11.8112 18.875 11.4779 19.125 11.3867C19.375 11.2956 19.6389 11.25 19.9167 11.25ZM20.6667 13.1836C20.6667 12.9753 20.5972 12.8092 20.4583 12.6855C20.3194 12.5618 20.1389 12.5 19.9167 12.5C19.8194 12.5 19.7257 12.513 19.6354 12.5391C19.5451 12.5651 19.4653 12.6139 19.3958 12.6855L12.1875 19.4434L11.8333 20.7617L13.2396 20.4297L20.4479 13.6816C20.5938 13.5449 20.6667 13.3789 20.6667 13.1836ZM2.8 3.3V12.5V21.8H8.28125V22.5H2V2.5H13.6146L19.3333 7.86133L19.33 10.5C19.0731 10.5326 18.2014 10.9349 18 11C17.7986 11.0651 18.7006 10.1514 18.84 10L18.8438 8.2H13V6V3.3H2.8ZM13.6146 3.3L13.61 7.5H18.2L16 5.5L13.6146 3.3ZM15.3333 11.25V11.8066H10.5L6 11.805V11.25H15.3333ZM6 16.8V16.25H11.3438L10.08 16.8H6ZM14.0104 13.75L12.6771 14.3H9.5H6V13.75H14.0104Z" fill="black"/>
</svg>
