<svg width="24" height="25" viewBox="0 0 24 25" fill="none" xmlns="http://www.w3.org/2000/svg">
<path d="M12 22.5C17.523 22.5 22 18.023 22 12.5C22 6.977 17.523 2.5 12 2.5C6.477 2.5 2 6.977 2 12.5C2 18.023 6.477 22.5 12 22.5Z" stroke="black" stroke-linejoin="round"/>
<path d="M7 14C7.82843 14 8.5 13.3284 8.5 12.5C8.5 11.6716 7.82843 11 7 11C6.17157 11 5.5 11.6716 5.5 12.5C5.5 13.3284 6.17157 14 7 14Z" fill="black"/>
<path d="M12 14C12.8284 14 13.5 13.3284 13.5 12.5C13.5 11.6716 12.8284 11 12 11C11.1716 11 10.5 11.6716 10.5 12.5C10.5 13.3284 11.1716 14 12 14Z" fill="black"/>
<path d="M17 14C17.8284 14 18.5 13.3284 18.5 12.5C18.5 11.6716 17.8284 11 17 11C16.1716 11 15.5 11.6716 15.5 12.5C15.5 13.3284 16.1716 14 17 14Z" fill="black"/>
</svg>
