<svg width="28" height="28" viewBox="0 0 28 28" fill="none" xmlns="http://www.w3.org/2000/svg">
<path d="M8.16665 2.33325C7.85723 2.33325 7.56048 2.45617 7.34169 2.67496C7.1229 2.89375 6.99998 3.1905 6.99998 3.49992V8.16659H4.66665C4.04781 8.16659 3.45432 8.41242 3.01673 8.85C2.57915 9.28759 2.33331 9.88108 2.33331 10.4999V19.8333C2.33331 20.4521 2.57915 21.0456 3.01673 21.4832C3.45432 21.9208 4.04781 22.1666 4.66665 22.1666H6.99998V24.4999C6.99998 24.8093 7.1229 25.1061 7.34169 25.3249C7.56048 25.5437 7.85723 25.6666 8.16665 25.6666H19.8333C20.1427 25.6666 20.4395 25.5437 20.6583 25.3249C20.8771 25.1061 21 24.8093 21 24.4999V22.1666H23.3333C23.9522 22.1666 24.5456 21.9208 24.9832 21.4832C25.4208 21.0456 25.6666 20.4521 25.6666 19.8333V10.4999C25.6666 9.88108 25.4208 9.28759 24.9832 8.85C24.5456 8.41242 23.9522 8.16659 23.3333 8.16659H21V3.49992C21 3.1905 20.8771 2.89375 20.6583 2.67496C20.4395 2.45617 20.1427 2.33325 19.8333 2.33325H8.16665ZM19.8333 16.3333H8.16665C7.85723 16.3333 7.56048 16.4562 7.34169 16.675C7.1229 16.8938 6.99998 17.1905 6.99998 17.4999V19.8333H4.66665V10.4999H23.3333V19.8333H21V17.4999C21 17.1905 20.8771 16.8938 20.6583 16.675C20.4395 16.4562 20.1427 16.3333 19.8333 16.3333ZM18.6666 8.16659H9.33331V4.66659H18.6666V8.16659ZM5.83331 11.6666V13.9999H9.33331V11.6666H5.83331ZM18.6666 18.6666V23.3333H9.33331V18.6666H18.6666Z" fill="#666666"/>
</svg>
