<svg width="24" height="25" viewBox="0 0 24 25" fill="none" xmlns="http://www.w3.org/2000/svg">
<path d="M4.5 22.5C3.795 22.5 3.20208 22.2816 2.72125 21.8449C2.24042 21.4081 2 20.8734 2 20.2406V17.9584H5.75V2.5L7.3375 3.50369L8.97125 2.5L10.6063 3.50369L12.24 2.5L13.875 3.50369L15.51 2.5L17.1437 3.50369L18.7788 2.5L20.4138 3.50369L22 2.5V20.2292C22 20.8696 21.7596 21.4081 21.2788 21.8449C20.7979 22.2816 20.205 22.5 19.5 22.5H4.5ZM19.5 21.3646C19.8542 21.3646 20.1512 21.2556 20.3912 21.0376C20.6312 20.8196 20.7508 20.5501 20.75 20.2292V4.33366H7V17.9584H18.25V20.2292C18.25 20.5509 18.37 20.8207 18.61 21.0387C18.85 21.2567 19.1467 21.3654 19.5 21.3646ZM8.73125 8.30755V7.17215H15.4137V8.30755H8.73125ZM8.73125 11.7137V10.5783H15.4137V11.7137H8.73125ZM18.1063 8.61411C17.8479 8.61411 17.6229 8.52706 17.4312 8.35297C17.2396 8.17887 17.1437 7.9745 17.1437 7.73985C17.1437 7.5052 17.2396 7.30083 17.4312 7.12674C17.6229 6.95264 17.8479 6.8656 18.1063 6.8656C18.3646 6.8656 18.5892 6.95264 18.78 7.12674C18.9717 7.30083 19.0675 7.5052 19.0675 7.73985C19.0675 7.9745 18.9717 8.17887 18.78 8.35297C18.5883 8.52706 18.3646 8.61411 18.1063 8.61411ZM18.105 12.0203C17.8475 12.0203 17.6229 11.9332 17.4312 11.7592C17.2396 11.5851 17.1437 11.3807 17.1437 11.146C17.1437 10.9114 17.2396 10.707 17.4312 10.5329C17.6229 10.3588 17.8479 10.2718 18.1063 10.2718C18.3646 10.2718 18.5892 10.3588 18.78 10.5329C18.9717 10.707 19.0675 10.9114 19.0675 11.146C19.0675 11.3807 18.9717 11.5851 18.78 11.7592C18.5883 11.9332 18.3633 12.0203 18.105 12.0203ZM4.5 21.3646H17V19.0938H3.25V20.2292C3.25 20.5509 3.37 20.8207 3.61 21.0387C3.85 21.2567 4.14667 21.3654 4.5 21.3646Z" fill="black"/>
</svg>
