<svg width="24" height="25" viewBox="0 0 24 25" fill="none" xmlns="http://www.w3.org/2000/svg">
<path d="M7.61538 12.0625H7.17703L7.06731 13.0768L7.52404 12.7705L7.61538 12.0625ZM16.5421 12.7696L17.1154 13.193V11.793L16.6587 12.0618L16.5421 12.7696ZM7.52404 15.3H6.88462V16H7.52857V15.5625L7.52404 15.3ZM16.5421 15.3V16H17.1154V15.3H16.5421ZM7.52404 9.52133L7.61538 9H6.88462V9.7L7.52404 9.52133ZM16.5421 9.52133L17.1154 9.7V9H16.3846L16.5421 9.52133ZM20.7692 6.9H21.5V6.6102L21.2866 6.4044L20.7692 6.9ZM16.3846 2.7L16.902 2.2044L16.6872 2H16.3846V2.7ZM7.52404 12.7705L12 12.7696H16.5421L16.6587 12.0618L12 12.0625H7.61538L7.52404 12.7705ZM7.52857 16H16.5421V15.475H12H7.52857V16ZM7.52404 9.52133H12H16.5421L16.3846 9H7.61538L7.52404 9.52133ZM19.3077 22.125H4.78365L4.69231 23H19.3077V22.125ZM3.59615 20.9V12.5V4.1H2.5V20.9H3.59615ZM20.4038 6.9V20.9H21.5V6.9H20.4038ZM4.69231 2.875H10.5385H16.3846V2H4.69231V2.875ZM16.2019 2.875L20.7692 7.25L21.2866 6.4044L16.902 2.2044L16.2019 2.875ZM4.78365 22.125C4.58984 22.125 4.00724 21.8188 3.87019 21.6875C3.73315 21.5562 3.59615 21.0857 3.59615 20.9H2.5C2.5 21.457 2.73097 21.9911 3.14211 22.3849C3.55325 22.7788 4.11087 23 4.69231 23L4.78365 22.125ZM19.3077 23C19.8891 23 20.4468 22.7788 20.8579 22.3849C21.269 21.9911 21.5 21.457 21.5 20.9H20.4038C20.4038 21.0857 20.4495 21.5562 20.3125 21.6875C20.1755 21.8188 19.5015 22.125 19.3077 22.125V23ZM3.59615 4.1C3.59615 3.91435 3.82449 3.44378 3.96154 3.3125C4.09858 3.18122 4.4985 2.875 4.69231 2.875V2C4.11087 2 3.55325 2.22125 3.14211 2.61508C2.73097 3.0089 2.5 3.54305 2.5 4.1H3.59615ZM6.88462 9.7V15.3H7.52404V12.5V9.52133L6.88462 9.7ZM11.7443 9.52133V12.4188V15.475H12.323V9.52133H12H11.7443ZM16.5421 9.52133V12.4188V15.3H17.1154V9.7L16.5421 9.52133ZM6.88462 7.6H11.2692V6.9H6.88462V7.6ZM12.7308 18.8H17.1154L17.1154 18.1875H14.8317H12.7308V18.8Z" fill="black"/>
</svg>
