<svg width="24" height="25" viewBox="0 0 24 25" fill="none" xmlns="http://www.w3.org/2000/svg">
<path d="M15.4286 15.1914C15.4286 15.2934 15.3884 15.3913 15.317 15.4634C15.2456 15.5355 15.1487 15.5761 15.0476 15.5761H8.95238C8.85135 15.5761 8.75445 15.5355 8.68301 15.4634C8.61156 15.3913 8.57143 15.2934 8.57143 15.1914C8.57143 15.0894 8.61156 14.9915 8.68301 14.9194C8.75445 14.8473 8.85135 14.8067 8.95238 14.8067H15.0476C15.1487 14.8067 15.2456 14.8473 15.317 14.9194C15.3884 14.9915 15.4286 15.0894 15.4286 15.1914ZM15.0476 11.7294H8.95238C8.85135 11.7294 8.75445 11.77 8.68301 11.8421C8.61156 11.9142 8.57143 12.0121 8.57143 12.1141C8.57143 12.2161 8.61156 12.314 8.68301 12.3861C8.75445 12.4582 8.85135 12.4988 8.95238 12.4988H15.0476C15.1487 12.4988 15.2456 12.4582 15.317 12.3861C15.3884 12.314 15.4286 12.2161 15.4286 12.1141C15.4286 12.0121 15.3884 11.9142 15.317 11.8421C15.2456 11.77 15.1487 11.7294 15.0476 11.7294ZM20 5.19018V21.346C20 21.6521 19.8796 21.9456 19.6653 22.162C19.4509 22.3784 19.1602 22.5 18.8571 22.5H5.14286C4.83975 22.5 4.54906 22.3784 4.33473 22.162C4.12041 21.9456 4 21.6521 4 21.346V5.19018C4 4.88412 4.12041 4.5906 4.33473 4.37419C4.54906 4.15777 4.83975 4.03619 5.14286 4.03619H8.76952C9.1627 3.55569 9.65615 3.16883 10.2146 2.90326C10.7731 2.6377 11.3827 2.5 12 2.5C12.6173 2.5 13.2269 2.6377 13.7854 2.90326C14.3438 3.16883 14.8373 3.55569 15.2305 4.03619H18.8571C19.1602 4.03619 19.4509 4.15777 19.6653 4.37419C19.8796 4.5906 20 4.88412 20 5.19018ZM8.57143 6.72883V7.11349H15.4286V6.72883C15.4286 5.81066 15.0673 4.93009 14.4244 4.28085C13.7814 3.63161 12.9093 3.26686 12 3.26686C11.0907 3.26686 10.2186 3.63161 9.57563 4.28085C8.93265 4.93009 8.57143 5.81066 8.57143 6.72883ZM19.2381 5.19018C19.2381 5.08816 19.198 4.99032 19.1265 4.91818C19.0551 4.84604 18.9582 4.80552 18.8571 4.80552H15.7305C16.0332 5.40053 16.1909 6.0599 16.1905 6.72883V7.49815C16.1905 7.60017 16.1503 7.69801 16.0789 7.77015C16.0075 7.84229 15.9106 7.88282 15.8095 7.88282H8.19048C8.08944 7.88282 7.99254 7.84229 7.9211 7.77015C7.84966 7.69801 7.80952 7.60017 7.80952 7.49815V6.72883C7.80911 6.0599 7.96681 5.40053 8.26952 4.80552H5.14286C5.04182 4.80552 4.94493 4.84604 4.87348 4.91818C4.80204 4.99032 4.7619 5.08816 4.7619 5.19018V21.346C4.7619 21.448 4.80204 21.5459 4.87348 21.618C4.94493 21.6901 5.04182 21.7307 5.14286 21.7307H18.8571C18.9582 21.7307 19.0551 21.6901 19.1265 21.618C19.198 21.5459 19.2381 21.448 19.2381 21.346V5.19018Z" fill="black"/>
</svg>
