<svg width="24" height="25" viewBox="0 0 24 25" fill="none" xmlns="http://www.w3.org/2000/svg">
<path d="M2 2.5V22H14V20.95H3V3.45H11.5V7.8H16.2272V10H17V7.45L16.775 7.225L12.275 2.725L12.05 2.5H2ZM12.275 3.87901L15.5 7H12.275V3.87901ZM5 10V11H14V10H5ZM17.75 11.5V13C16.475 13.225 15.5 14.275 15.5 15.625C15.5 17.125 16.625 18.25 18.125 18.25H18.875C19.475 18.25 20 18.775 20 19.375C20 19.975 19.475 20.5 18.875 20.5H16.25V22H17.75V23.5H19.25V22C20.525 21.775 21.5 20.725 21.5 19.375C21.5 17.875 20.375 16.75 18.875 16.75H18.125C17.525 16.75 17 16.225 17 15.625C17 15.025 17.525 14.5 18.125 14.5H20.75V13H19.25V11.5H17.75ZM5 13.75V14.5H10.25V13.75H5ZM11.75 13.75V14.5H14V13.75H11.75ZM5 16.75V17.5H10.25V16.75H5ZM11.75 16.75V17.5H14V16.75H11.75Z" fill="black"/>
</svg>
