<svg width="24" height="25" viewBox="0 0 24 25" fill="none" xmlns="http://www.w3.org/2000/svg">
<path d="M22.7364 7.78442C22.5954 7.66141 22.421 7.58308 22.2354 7.55938C22.0498 7.53567 21.8613 7.56767 21.6939 7.65129L16.8311 10.0757L12.8121 3.39598C12.7278 3.25603 12.6087 3.14024 12.4664 3.05987C12.3242 2.97949 12.1636 2.93726 12.0002 2.93726C11.8368 2.93726 11.6762 2.97949 11.5339 3.05987C11.3917 3.14024 11.2726 3.25603 11.1883 3.39598L7.16925 10.0757L2.30831 7.65223C2.14095 7.56867 1.9526 7.53656 1.76701 7.55994C1.58142 7.58332 1.40691 7.66114 1.2655 7.78359C1.1241 7.90605 1.02213 8.06764 0.972463 8.24798C0.922797 8.42832 0.927659 8.61934 0.986436 8.79692L4.45519 19.4244C4.48131 19.5046 4.52514 19.5779 4.58343 19.6389C4.64172 19.6999 4.71298 19.747 4.79193 19.7767C4.87089 19.8064 4.95551 19.818 5.03954 19.8105C5.12357 19.8031 5.20485 19.7769 5.27737 19.7338C5.28394 19.7338 5.89237 19.3738 7.02112 19.0232C8.06269 18.6988 9.76987 18.3125 12.0002 18.3125C14.2305 18.3125 15.9377 18.6988 16.9802 19.0232C18.1052 19.3738 18.7174 19.73 18.7221 19.7329C18.7946 19.7761 18.8759 19.8026 18.9599 19.8101C19.044 19.8177 19.1288 19.8063 19.2078 19.7766C19.2869 19.747 19.3583 19.7 19.4167 19.639C19.4751 19.578 19.519 19.5047 19.5452 19.4244L23.0139 8.79879C23.0744 8.62135 23.0803 8.42985 23.0308 8.24903C22.9813 8.06821 22.8788 7.90637 22.7364 7.78442ZM18.678 18.456C17.6467 17.9947 15.3593 17.1875 12.0002 17.1875C8.64112 17.1875 6.35362 17.9947 5.32237 18.456L2.18644 8.84848L6.813 11.1547C7.02656 11.2602 7.27188 11.2819 7.50061 11.2154C7.72933 11.1489 7.92486 10.9992 8.04862 10.7957L12.0002 4.23317L15.9517 10.8004C16.0756 11.0035 16.271 11.1529 16.4995 11.2193C16.7279 11.2858 16.9729 11.2644 17.1864 11.1594L21.8139 8.85223L18.678 18.456ZM16.3043 15.1672C16.2821 15.298 16.2145 15.4168 16.1133 15.5026C16.0121 15.5884 15.8838 15.6356 15.7511 15.636C15.7197 15.6357 15.6883 15.6329 15.6574 15.6275C13.2401 15.2125 10.7697 15.2125 8.35237 15.6275C8.20493 15.6535 8.0532 15.6199 7.93057 15.534C7.80794 15.4481 7.72445 15.317 7.69847 15.1696C7.67248 15.0221 7.70614 14.8704 7.79202 14.7478C7.87791 14.6251 8.00899 14.5416 8.15644 14.5157C10.7028 14.0782 13.3051 14.0782 15.8514 14.5157C15.9977 14.5424 16.1274 14.6259 16.2123 14.748C16.2972 14.8701 16.3302 15.0208 16.3043 15.1672Z" fill="black"/>
</svg>
