<svg width="20" height="20" viewBox="0 0 20 20" fill="none" xmlns="http://www.w3.org/2000/svg">
<path d="M6.394 1.6665C6.54871 1.6665 6.69709 1.72796 6.80648 1.83736C6.91588 1.94675 6.97734 2.09513 6.97734 2.24984V3.34067H13.2415V2.25734C13.2415 2.10263 13.303 1.95425 13.4124 1.84486C13.5218 1.73546 13.6701 1.674 13.8248 1.674C13.9795 1.674 14.1279 1.73546 14.2373 1.84486C14.3467 1.95425 14.4082 2.10263 14.4082 2.25734V3.34067H16.6665C17.1084 3.34067 17.5322 3.51615 17.8447 3.82853C18.1573 4.14091 18.3329 4.56462 18.3332 5.0065V16.6673C18.3329 17.1092 18.1573 17.5329 17.8447 17.8453C17.5322 18.1577 17.1084 18.3332 16.6665 18.3332H3.33317C2.89129 18.3332 2.46749 18.1577 2.15495 17.8453C1.84242 17.5329 1.66672 17.1092 1.6665 16.6673V5.0065C1.66672 4.56462 1.84242 4.14091 2.15495 3.82853C2.46749 3.51615 2.89129 3.34067 3.33317 3.34067H5.81067V2.249C5.81089 2.09444 5.87245 1.94628 5.98182 1.83706C6.09119 1.72785 6.23944 1.6665 6.394 1.6665ZM2.83317 8.11817V16.6673C2.83317 16.733 2.8461 16.798 2.87123 16.8587C2.89636 16.9193 2.93319 16.9745 2.97962 17.0209C3.02605 17.0673 3.08117 17.1041 3.14183 17.1293C3.20249 17.1544 3.26751 17.1673 3.33317 17.1673H16.6665C16.7322 17.1673 16.7972 17.1544 16.8578 17.1293C16.9185 17.1041 16.9736 17.0673 17.0201 17.0209C17.0665 16.9745 17.1033 16.9193 17.1284 16.8587C17.1536 16.798 17.1665 16.733 17.1665 16.6673V8.12984L2.83317 8.11817ZM7.22234 13.849V15.2373H5.83317V13.849H7.22234ZM10.694 13.849V15.2373H9.30567V13.849H10.694ZM14.1665 13.849V15.2373H12.7773V13.849H14.1665ZM7.22234 10.5348V11.9232H5.83317V10.5348H7.22234ZM10.694 10.5348V11.9232H9.30567V10.5348H10.694ZM14.1665 10.5348V11.9232H12.7773V10.5348H14.1665ZM5.81067 4.5065H3.33317C3.26751 4.5065 3.20249 4.51944 3.14183 4.54456C3.08117 4.56969 3.02605 4.60652 2.97962 4.65295C2.93319 4.69938 2.89636 4.7545 2.87123 4.81516C2.8461 4.87582 2.83317 4.94084 2.83317 5.0065V6.95234L17.1665 6.964V5.0065C17.1665 4.94084 17.1536 4.87582 17.1284 4.81516C17.1033 4.7545 17.0665 4.69938 17.0201 4.65295C16.9736 4.60652 16.9185 4.56969 16.8578 4.54456C16.7972 4.51944 16.7322 4.5065 16.6665 4.5065H14.4082V5.28067C14.4082 5.43538 14.3467 5.58375 14.2373 5.69315C14.1279 5.80255 13.9795 5.864 13.8248 5.864C13.6701 5.864 13.5218 5.80255 13.4124 5.69315C13.303 5.58375 13.2415 5.43538 13.2415 5.28067V4.5065H6.97734V5.27317C6.97734 5.42788 6.91588 5.57625 6.80648 5.68565C6.69709 5.79505 6.54871 5.8565 6.394 5.8565C6.23929 5.8565 6.09092 5.79505 5.98152 5.68565C5.87213 5.57625 5.81067 5.42788 5.81067 5.27317V4.5065Z" fill="#666666"/>
</svg>
