<svg width="24" height="25" viewBox="0 0 24 25" fill="none" xmlns="http://www.w3.org/2000/svg">
<path d="M11.5 13.5C10.4122 13.5 9.34884 13.1774 8.44437 12.5731C7.5399 11.9687 6.83495 11.1098 6.41867 10.1048C6.00238 9.09977 5.89346 7.9939 6.10568 6.92701C6.3179 5.86011 6.84173 4.8801 7.61092 4.11092C8.3801 3.34173 9.36011 2.8179 10.427 2.60568C11.4939 2.39346 12.5998 2.50238 13.6048 2.91867C14.6098 3.33495 15.4687 4.0399 16.0731 4.94437C16.6774 5.84884 17 6.91221 17 8C16.9974 9.45788 16.417 10.8553 15.3862 11.8862C14.3553 12.917 12.9579 13.4974 11.5 13.5ZM11.5 3.5C10.61 3.5 9.73996 3.76392 8.99994 4.25839C8.25992 4.75286 7.68314 5.45566 7.34254 6.27793C7.00195 7.10019 6.91284 8.00499 7.08647 8.87791C7.2601 9.75082 7.68869 10.5526 8.31802 11.182C8.94736 11.8113 9.74918 12.2399 10.6221 12.4135C11.495 12.5872 12.3998 12.4981 13.2221 12.1575C14.0443 11.8169 14.7471 11.2401 15.2416 10.5001C15.7361 9.76005 16 8.89002 16 8C15.9974 6.80734 15.5224 5.66428 14.6791 4.82094C13.8357 3.9776 12.6927 3.50264 11.5 3.5Z" fill="black"/>
<path d="M2.5 21.5C2.36739 21.5 2.24021 21.4473 2.14645 21.3536C2.05268 21.2598 2 21.1326 2 21C2.00265 18.7465 2.89903 16.586 4.49252 14.9925C6.086 13.399 8.24647 12.5026 10.5 12.5H12.5C12.6326 12.5 12.7598 12.5527 12.8536 12.6464C12.9473 12.7402 13 12.8674 13 13C13 13.1326 12.9473 13.2598 12.8536 13.3536C12.7598 13.4473 12.6326 13.5 12.5 13.5H10.5C8.51088 13.5 6.60322 14.2902 5.1967 15.6967C3.79018 17.1032 3 19.0109 3 21C3 21.1326 2.94732 21.2598 2.85355 21.3536C2.75979 21.4473 2.63261 21.5 2.5 21.5Z" fill="black"/>
<path d="M14.4999 22.5001C14.4343 22.5009 14.3693 22.488 14.309 22.4621C14.2487 22.4363 14.1945 22.3982 14.1499 22.3501L10.1499 18.3501C10.057 18.2573 10.0049 18.1314 10.0049 18.0001C10.0049 17.8688 10.057 17.7429 10.1499 17.6501C10.2427 17.5573 10.3686 17.5051 10.4999 17.5051C10.6311 17.5051 10.757 17.5573 10.8499 17.6501L14.4799 21.2701L21.1199 13.6701C21.2074 13.5693 21.3314 13.5074 21.4645 13.4981C21.5977 13.4887 21.7291 13.5326 21.8299 13.6201C21.9306 13.7076 21.9925 13.8316 22.0019 13.9648C22.0113 14.0979 21.9674 14.2293 21.8799 14.3301L14.8799 22.3301C14.8351 22.3821 14.7799 22.424 14.7179 22.4533C14.6559 22.4826 14.5884 22.4986 14.5199 22.5001H14.4999Z" fill="black"/>
</svg>
